<?xml version="1.0" encoding="utf-8"?>
<!-- Generator: Adobe Illustrator 25.0.1, SVG Export Plug-In . SVG Version: 6.00 Build 0)  -->
<svg version="1.1" id="Layer_1" xmlns="http://www.w3.org/2000/svg" xmlns:xlink="http://www.w3.org/1999/xlink" x="0px" y="0px"
	 viewBox="0 0 30 30" style="enable-background:new 0 0 30 30;" xml:space="preserve">
<g>
	<path d="M24.4,4.2h-4.9V3.3c0-1.5-1.2-2.7-2.7-2.7h-3.6c-1.5,0-2.7,1.2-2.7,2.7v0.9H5.6c-1.2,0-2.2,1-2.2,2.2v1.8
		c0,0.5,0.4,0.9,0.9,0.9h21.6c0.5,0,0.9-0.4,0.9-0.9V6.5C26.7,5.2,25.7,4.2,24.4,4.2L24.4,4.2z M12.3,3.3c0-0.5,0.4-0.9,0.9-0.9h3.6
		c0.5,0,0.9,0.4,0.9,0.9v0.9h-5.4V3.3z M12.3,3.3"/>
	<path d="M5,11c-0.2,0-0.3,0.1-0.3,0.3l0.7,15.6c0.1,1.4,1.3,2.6,2.7,2.6h13.6c1.4,0,2.6-1.1,2.7-2.6l0.7-15.6
		c0-0.2-0.1-0.3-0.3-0.3H5z M18.6,13.2c0-0.5,0.4-0.9,0.9-0.9c0.5,0,0.9,0.4,0.9,0.9v11.7c0,0.5-0.4,0.9-0.9,0.9
		c-0.5,0-0.9-0.4-0.9-0.9V13.2z M14.1,13.2c0-0.5,0.4-0.9,0.9-0.9c0.5,0,0.9,0.4,0.9,0.9v11.7c0,0.5-0.4,0.9-0.9,0.9
		c-0.5,0-0.9-0.4-0.9-0.9V13.2z M9.6,13.2c0-0.5,0.4-0.9,0.9-0.9c0.5,0,0.9,0.4,0.9,0.9v11.7c0,0.5-0.4,0.9-0.9,0.9
		c-0.5,0-0.9-0.4-0.9-0.9V13.2z M9.6,13.2"/>
</g>
</svg>
