<?xml version="1.0" encoding="iso-8859-1"?>
<!-- Generator: Adobe Illustrator 25.0.1, SVG Export Plug-In . SVG Version: 6.00 Build 0)  -->
<svg version="1.1" id="Capa_1" xmlns="http://www.w3.org/2000/svg" xmlns:xlink="http://www.w3.org/1999/xlink" x="0px" y="0px"
	 viewBox="0 0 10 5.707" style="enable-background:new 0 0 10 5.707;" xml:space="preserve">
<path d="M9.813,3.05L8.902,1.532C8.847,1.44,8.748,1.385,8.642,1.385H6.821V0.474c0-0.168-0.136-0.304-0.304-0.304H2.268
	c-0.168,0-0.304,0.136-0.304,0.304v0.304H0.446c-0.168,0-0.304,0.136-0.304,0.304s0.136,0.304,0.304,0.304h1.518v0.607H1.053
	c-0.168,0-0.304,0.136-0.304,0.304s0.136,0.304,0.304,0.304h0.911v0.607H1.66c-0.168,0-0.304,0.136-0.304,0.304
	S1.492,3.816,1.66,3.816h0.304v0.911c0,0.168,0.136,0.304,0.304,0.304h0.966c0.126,0.353,0.46,0.607,0.855,0.607
	s0.729-0.254,0.855-0.607h1.573h0.304h0.663c0.126,0.353,0.46,0.607,0.855,0.607s0.729-0.254,0.855-0.607h0.359
	c0.168,0,0.304-0.136,0.304-0.304V3.209C9.856,3.15,9.842,3.096,9.813,3.05z M4.089,5.027c-0.168,0-0.304-0.137-0.304-0.304
	s0.136-0.304,0.304-0.304s0.304,0.137,0.304,0.304S4.257,5.027,4.089,5.027z M8.339,5.027c-0.167,0-0.304-0.137-0.304-0.304
	s0.137-0.304,0.304-0.304s0.304,0.137,0.304,0.304S8.506,5.027,8.339,5.027z M7.428,3.206V1.992H8.47l0.728,1.214H7.428z"/>
</svg>
