<?xml version="1.0" encoding="utf-8"?>
<!-- Generator: Adobe Illustrator 25.0.1, SVG Export Plug-In . SVG Version: 6.00 Build 0)  -->
<svg version="1.1" id="Layer_2_1_" xmlns="http://www.w3.org/2000/svg" xmlns:xlink="http://www.w3.org/1999/xlink" x="0px" y="0px"
	 viewBox="0 0 10 10" style="enable-background:new 0 0 10 10;" xml:space="preserve">
<path d="M5.1,0C2.5-0.2,0.2,1.8,0,4.6S1.7,9.8,4.3,10V6.1H3.2V4.7h1.1v-1C4.2,2.7,4.8,1.9,5.6,1.8c0.1,0,0.2,0,0.3,0
	c0.5,0,0.9,0,1,0v1.2H6.3c-0.5,0-0.6,0.3-0.6,0.7v0.9h1.3L6.7,6.1H5.6V10c2.6-0.2,4.5-2.5,4.4-5.3S7.6-0.2,5.1,0z"/>
</svg>
