<svg id="Layer_1" data-name="Layer 1" xmlns="http://www.w3.org/2000/svg" viewBox="0 0 10 10"><path d="M6,5A1,1,0,1,1,5,4,1,1,0,0,1,6,5ZM6,5"/><path d="M7.24,3.31A.83.83,0,0,0,7,3a.83.83,0,0,0-.33-.22,1.73,1.73,0,0,0-.53-.1H3.84a1.73,1.73,0,0,0-.53.1A.83.83,0,0,0,3,3a.83.83,0,0,0-.22.33,1.73,1.73,0,0,0-.1.53c0,.3,0,.39,0,1.16s0,.86,0,1.16a1.73,1.73,0,0,0,.1.53A.83.83,0,0,0,3,7a.83.83,0,0,0,.33.22,1.73,1.73,0,0,0,.53.1H6.16a1.73,1.73,0,0,0,.53-.1,1,1,0,0,0,.55-.55,1.73,1.73,0,0,0,.1-.53c0-.3,0-.39,0-1.16s0-.86,0-1.16a1.73,1.73,0,0,0-.1-.53ZM5,6.47A1.47,1.47,0,1,1,6.47,5,1.47,1.47,0,0,1,5,6.47ZM6.53,3.81a.34.34,0,0,1-.34-.34.35.35,0,0,1,.34-.35.35.35,0,0,1,.35.35.35.35,0,0,1-.35.34Zm0,0"/><path d="M5,0a5,5,0,1,0,5,5A5,5,0,0,0,5,0ZM7.85,6.18a2,2,0,0,1-.13.7,1.45,1.45,0,0,1-.84.84,2,2,0,0,1-.7.13c-.3,0-.4,0-1.18,0s-.88,0-1.18,0a2,2,0,0,1-.7-.13,1.32,1.32,0,0,1-.51-.33,1.32,1.32,0,0,1-.33-.51,2,2,0,0,1-.13-.7c0-.3,0-.4,0-1.18s0-.88,0-1.18a2,2,0,0,1,.13-.7,1.32,1.32,0,0,1,.33-.51,1.32,1.32,0,0,1,.51-.33,2,2,0,0,1,.7-.13c.3,0,.4,0,1.18,0s.88,0,1.18,0a2,2,0,0,1,.7.13,1.32,1.32,0,0,1,.51.33,1.32,1.32,0,0,1,.33.51,2,2,0,0,1,.13.7c0,.3,0,.4,0,1.18s0,.88,0,1.18Zm0,0"/></svg>