<svg id="Layer_3" data-name="Layer 3" xmlns="http://www.w3.org/2000/svg" viewBox="0 0 10 10"><path d="M5,0a5,5,0,1,0,5,5A5,5,0,0,0,5,0ZM7.28,3.9a.76.76,0,0,1,0,.15A3.25,3.25,0,0,1,4,7.31H4A3.3,3.3,0,0,1,2.26,6.8h.28A2.28,2.28,0,0,0,4,6.32a1.14,1.14,0,0,1-1.07-.8.75.75,0,0,0,.21,0,1.06,1.06,0,0,0,.31,0,1.13,1.13,0,0,1-.92-1.12v0A1.13,1.13,0,0,0,3,4.51a1.15,1.15,0,0,1-.51-1A1.1,1.1,0,0,1,2.65,3,3.29,3.29,0,0,0,5,4.18a1.24,1.24,0,0,1,0-.27A1.14,1.14,0,0,1,6.13,2.77,1.16,1.16,0,0,1,7,3.13a2.31,2.31,0,0,0,.73-.28,1.12,1.12,0,0,1-.5.63,1.91,1.91,0,0,0,.66-.18,2.36,2.36,0,0,1-.58.6Zm0,0"/></svg>