<?xml version="1.0" encoding="utf-8"?>
<!-- Generator: Adobe Illustrator 25.0.1, SVG Export Plug-In . SVG Version: 6.00 Build 0)  -->
<svg version="1.1" id="Layer_1" xmlns="http://www.w3.org/2000/svg" xmlns:xlink="http://www.w3.org/1999/xlink" x="0px" y="0px"
	 viewBox="0 0 1264 282.7" style="enable-background:new 0 0 1264 282.7;" xml:space="preserve">
<style type="text/css">
	.st0{fill:#32E0C4;}
</style>
<path class="st0" d="M71.8,11.7v71.8c23.9-3.1,47.9-5.6,71.8-7.4V4.2c19.1-1.5,38.3-2.6,57.4-3.3V202c-19.2,0.8-38.3,1.9-57.4,3.3
	v-71.8c-23.9,1.9-47.9,4.3-71.8,7.4v71.8c-19.2,2.5-38.3,5.5-57.4,8.9V34.9C9.6,31,4.8,27.1,0,23.3C23.9,18.6,47.9,14.8,71.8,11.7z"
	/>
<path class="st0" d="M301.6,201.1c-27.8-0.5-51.5-10.3-71.1-29.6s-29.4-42.5-29.4-70.3s9.8-51.8,29.4-71.8S273.8-0.5,301.6,0
	s51.5,11.3,71.1,31.9s29.4,44.9,29.4,72.7s-9.8,50.8-29.4,69.5S329.4,201.6,301.6,201.1z M332,131.8c8.3-7.8,12.9-18.7,12.6-30
	c0.1-11.6-4.4-22.7-12.6-30.9c-7.9-8.5-18.9-13.3-30.4-13.5c-11.4-0.4-22.5,4.1-30.5,12.3c-16.8,16.8-16.8,44-0.1,60.8
	c0,0,0.1,0.1,0.1,0.1c8,8.3,19,13,30.5,13C312.9,144.1,323.9,139.8,332,131.8z"/>
<path class="st0" d="M430.7,7.3c14.4,39.3,28.7,78.8,43.1,118.3c14.4-41.9,28.7-83.7,43.1-125.5c14.4,44.4,28.7,88.8,43.1,133.2
	c14.4-37,28.7-73.9,43.1-110.8c19.1,1.8,38.3,3.7,57.4,5.5c-23.9,64.8-47.9,129.5-71.8,194.2c-19.2-1.8-38.3-3.6-57.5-5.4
	c-4.8-13.8-9.6-27.7-14.4-41.5c-4.8,13-9.6,25.9-14.4,38.9c-19.1-1.7-38.3-3.3-57.5-4.8C422.6,145,400.2,80.8,377.8,16.7
	c-4.3-4.5-8.6-9.1-12.9-13.6C386.8,4.3,408.8,5.7,430.7,7.3z"/>
<path class="st0" d="M732.3,34.5v143.6c19.2,1.7,38.3,3.2,57.4,4.7c-19.2,17.7-38.3,35.3-57.4,52.8c-19.1-1.7-38.3-3.4-57.5-5.2
	V43.7L660.5,28C684.4,30.2,708.4,32.4,732.3,34.5z"/>
<path class="st0" d="M847.2,42.7v143.6c19.2,1.2,38.3,2.2,57.5,3c-19.2,18.4-38.3,36.5-57.5,54.5c-19.2-1.2-38.3-2.5-57.4-4V53
	c-4.8-5.2-9.6-10.3-14.4-15.5C799.3,39.5,823.2,41.2,847.2,42.7z"/>
<path class="st0" d="M1034.3,47.3v57.5c-23.9,0.4-47.9,0.4-71.8-0.1v28.7c28.7,0.6,57.5,0.5,86.2-0.2
	c-28.7,15.1-57.4,29.5-86.2,43.2v14.4c23.9,0.5,47.9,0.5,71.8,0.1v57.5c-43.1,0.7-86.2-0.1-129.2-2V59.7c-4.8-5-9.6-10-14.4-15
	C938.5,47.1,986.4,48.2,1034.3,47.3z"/>
<path class="st0" d="M1264,282.7c-47.9-31.1-95.7-65.4-143.6-102.1l-0.3-51.3c9.7-0.7,19.3-1.6,29-2.5c9.6-0.9,14.4-6.3,14.4-15.8
	s-4.8-13.8-14.4-12.9c-14.4,1.4-28.7,2.6-43.1,3.5v143.7c-19.1,1.3-38.3,2.2-57.4,2.8V61.3c-4.8-4.7-9.6-9.3-14.4-14
	c38.3-0.8,76.6-3,114.9-6.7c47.9-4.8,71.8,14.8,71.8,62.8c0,38.3-9.6,61.5-28.7,68.9C1216.1,209.8,1240.1,246.6,1264,282.7z"/>
</svg>
