<?xml version="1.0" encoding="utf-8"?>
<!-- Generator: Adobe Illustrator 25.0.1, SVG Export Plug-In . SVG Version: 6.00 Build 0)  -->
<svg version="1.1" id="Layer_2_1_" xmlns="http://www.w3.org/2000/svg" xmlns:xlink="http://www.w3.org/1999/xlink" x="0px" y="0px"
	 viewBox="0 0 10 10" style="enable-background:new 0 0 10 10;" xml:space="preserve">
<style type="text/css">
	.st0{fill:#32E0C4;}
</style>
<g>
	<path class="st0" d="M3.2,7.1h5.3c0.1,0,0.2-0.1,0.3-0.2L10,2.8c0-0.1,0-0.2,0-0.3C9.9,2.4,9.8,2.4,9.7,2.4H2.6L2.4,1.4
		c0-0.1-0.1-0.2-0.3-0.2H0.3C0.1,1.2,0,1.3,0,1.5s0.1,0.3,0.3,0.3h1.5l1.1,4.8C2.4,6.8,2.2,7.3,2.4,7.7C2.6,8,2.9,8.2,3.2,8.2h5.3
		c0.2,0,0.3-0.1,0.3-0.3c0-0.2-0.1-0.3-0.3-0.3H3.2c-0.2,0-0.3-0.1-0.3-0.3C2.9,7.2,3.1,7.1,3.2,7.1z"/>
	<path class="st0" d="M2.9,9.1c0,0.5,0.4,0.9,0.9,0.9c0.5,0,0.9-0.4,0.9-0.9c0-0.5-0.4-0.9-0.9-0.9c0,0,0,0,0,0
		C3.3,8.2,2.9,8.6,2.9,9.1z"/>
	<path class="st0" d="M7.1,9.1c0,0.5,0.4,0.9,0.9,0.9s0.9-0.4,0.9-0.9S8.4,8.2,7.9,8.2c0,0,0,0,0,0C7.5,8.2,7.1,8.6,7.1,9.1z"/>
</g>
</svg>
