<?xml version="1.0" encoding="utf-8"?>
<!-- Generator: Adobe Illustrator 25.0.1, SVG Export Plug-In . SVG Version: 6.00 Build 0)  -->
<svg version="1.1" id="Layer_1" xmlns="http://www.w3.org/2000/svg" xmlns:xlink="http://www.w3.org/1999/xlink" x="0px" y="0px"
	 viewBox="0 0 10 10" style="enable-background:new 0 0 10 10;" xml:space="preserve">
<style type="text/css">
	.st0{fill:#32E0C4;}
</style>
<g>
	<path class="st0" d="M5,5.3c-1.5,0-2.6-1.2-2.6-2.6S3.5,0,5,0s2.6,1.2,2.6,2.6c0,0,0,0,0,0C7.6,4.1,6.5,5.3,5,5.3z"/>
	<path class="st0" d="M9.1,10H0.9c-0.2,0-0.3-0.1-0.3-0.3c0-1,0.4-2,1.1-2.7c0.7-0.7,1.7-1.1,2.7-1.1h1.2c1,0,2,0.4,2.7,1.1
		C9,7.7,9.4,8.7,9.4,9.7C9.4,9.9,9.3,10,9.1,10C9.1,10,9.1,10,9.1,10z"/>
</g>
</svg>
